<svg width="275" height="240" viewBox="0 0 275 240" fill="none" xmlns="http://www.w3.org/2000/svg">
<ellipse cx="137.191" cy="120.378" rx="70" ry="118" transform="rotate(-120 137.191 120.378)" fill="#FFDECB"/>
<path d="M161 141.833V129.313L147.667 122.646V140.979L159 146.667L158.354 149.313L145 142.646V119.646L162.333 111L179.667 119.646V125.271C178.694 125.424 177.806 125.736 177 126.208V122.646L163.667 129.313V139.167L161 141.833ZM158.042 116.104L170.208 123.063L175.354 120.479L162.333 113.958L158.042 116.104ZM162.333 127L167.333 124.5L155.167 117.542L149.313 120.479L162.333 127ZM180.833 128.479C181.417 128.479 181.958 128.583 182.458 128.792C182.958 129 183.403 129.285 183.792 129.646C184.181 130.007 184.472 130.444 184.667 130.958C184.861 131.472 184.972 132.021 185 132.604C185 133.146 184.896 133.674 184.688 134.188C184.479 134.701 184.181 135.153 183.792 135.542L168.854 150.479L161 152.438L162.958 144.583L177.896 129.667C178.299 129.264 178.75 128.965 179.25 128.771C179.75 128.576 180.278 128.479 180.833 128.479ZM181.896 133.667C182.188 133.375 182.333 133.021 182.333 132.604C182.333 132.174 182.194 131.826 181.917 131.563C181.639 131.299 181.278 131.16 180.833 131.146C180.639 131.146 180.451 131.174 180.271 131.229C180.09 131.285 179.931 131.389 179.792 131.542L165.375 145.958L164.667 148.771L167.479 148.063L181.896 133.667Z" fill="#E15D37"/>
<g clip-path="url(#clip0_402_35)">
<path d="M119 101.333H134V104.667H119V101.333Z" fill="#E15D37"/>
<path d="M119 108H134V111.333H119V108Z" fill="#E15D37"/>
<path d="M119 114.667H134V118H119V114.667Z" fill="#E15D37"/>
<path d="M119 121.333H134V124.667H119V121.333Z" fill="#E15D37"/>
<path d="M119 128H134V131.333H119V128Z" fill="#E15D37"/>
<path d="M112.333 101.333H115.667V104.667H112.333V101.333Z" fill="#E15D37"/>
<path d="M112.333 108H115.667V111.333H112.333V108Z" fill="#E15D37"/>
<path d="M112.333 114.667H115.667V118H112.333V114.667Z" fill="#E15D37"/>
<path d="M112.333 121.333H115.667V124.667H112.333V121.333Z" fill="#E15D37"/>
<path d="M112.333 128H115.667V131.333H112.333V128Z" fill="#E15D37"/>
<path d="M140.667 91.3334H107.333C106.449 91.3334 105.601 91.6846 104.976 92.3097C104.351 92.9348 104 93.7827 104 94.6667V141.333C104 142.217 104.351 143.065 104.976 143.69C105.601 144.316 106.449 144.667 107.333 144.667H140.667C141.551 144.667 142.399 144.316 143.024 143.69C143.649 143.065 144 142.217 144 141.333V94.6667C144 93.7827 143.649 92.9348 143.024 92.3097C142.399 91.6846 141.551 91.3334 140.667 91.3334ZM140.667 141.333H107.333V94.6667H140.667V141.333Z" fill="#E15D37"/>
</g>
<defs>
<clipPath id="clip0_402_35">
<rect width="60" height="60" fill="white" transform="translate(94 88)"/>
</clipPath>
</defs>
</svg>
